<?xml version="1.0" encoding="UTF-8"?>
<svg width="14px" height="14px" viewBox="0 0 14 14" version="1.1" xmlns="http://www.w3.org/2000/svg" xmlns:xlink="http://www.w3.org/1999/xlink">
    <!-- Generator: Sketch 56.2 (81672) - https://sketch.com -->
    <title>ICON/搜索</title>
    <desc>Created with Sketch.</desc>
    <g id="设计稿2.0" stroke="none" stroke-width="1" fill="none" fill-rule="evenodd">
        <g id="2.1_组件搜索" transform="translate(-370.000000, -388.000000)" fill="#538FF8" fill-rule="nonzero">
            <g id="列表" transform="translate(280.000000, 326.000000)">
                <g id="编组-4" transform="translate(24.000000, 12.000000)">
                    <g id="ICON/搜索" transform="translate(62.000000, 46.000000)">
                        <path d="M14.1042488,13.6613861 L17.2708363,16.8279736 L16.5800488,17.5187611 L13.3914751,14.3301874 C12.4570946,15.0630361 11.2795765,15.5 10,15.5 C6.96243388,15.5 4.5,13.0375661 4.5,10 C4.5,6.96243388 6.96243388,4.5 10,4.5 C13.0375661,4.5 15.5,6.96243388 15.5,10 C15.5,11.4061031 14.9723482,12.6889666 14.1042488,13.6613861 Z M10,14.5 C12.4852814,14.5 14.5,12.4852814 14.5,10 C14.5,7.51471863 12.4852814,5.5 10,5.5 C7.51471863,5.5 5.5,7.51471863 5.5,10 C5.5,12.4852814 7.51471863,14.5 10,14.5 Z" id="形状结合"></path>
                    </g>
                </g>
            </g>
        </g>
    </g>
</svg>